<svg xmlns="http://www.w3.org/2000/svg" width="1024" height="1024" viewBox="0 0 1024 1024"><path d="M-60,449.1 C-36.17,444.54 35.33,430.4 83,421.72 C130.67,413.04 178.33,404.43 226,397.02 C273.67,389.62 321.33,382.78 369,377.28 C416.67,371.77 464.33,367.26 512,364 C559.67,360.74 607.33,358.74 655,357.73 C702.67,356.71 750.33,357.03 798,357.92 C845.67,358.81 893.33,360.91 941,363.07 C988.67,365.23 1060.17,369.59 1084,370.9 L1084,670.9 C1060.17,669.59 988.67,665.23 941,663.07 C893.33,660.91 845.67,658.81 798,657.92 C750.33,657.03 702.67,656.71 655,657.73 C607.33,658.74 559.67,660.74 512,664 C464.33,667.26 416.67,671.77 369,677.28 C321.33,682.78 273.67,689.62 226,697.02 C178.33,704.43 130.67,713.04 83,721.72 C35.33,730.4 -36.17,744.54 -60,749.1 Z" fill="#fff"/></svg>
